<svg width="16" height="17" viewBox="0 0 16 17" fill="none" xmlns="http://www.w3.org/2000/svg">
<g clip-path="url(#clip0_45_171)">
<path d="M7.99999 15.1667C11.6819 15.1667 14.6667 12.1819 14.6667 8.49999C14.6667 4.8181 11.6819 1.83333 7.99999 1.83333C4.3181 1.83333 1.33333 4.8181 1.33333 8.49999C1.33333 12.1819 4.3181 15.1667 7.99999 15.1667Z" stroke="#292929" stroke-opacity="0.95" stroke-width="1.5" stroke-linecap="round" stroke-linejoin="round"/>
<path d="M8 4.5V8.5L10.6667 11.1667" stroke="#292929" stroke-opacity="0.95" stroke-width="1.5" stroke-linecap="round" stroke-linejoin="round"/>
<path d="M7.99999 15.1667C11.6819 15.1667 14.6667 12.1819 14.6667 8.49999C14.6667 4.8181 11.6819 1.83333 7.99999 1.83333C4.3181 1.83333 1.33333 4.8181 1.33333 8.49999C1.33333 12.1819 4.3181 15.1667 7.99999 15.1667Z" stroke="#292929" stroke-opacity="0.95" stroke-width="1.5" stroke-linecap="round" stroke-linejoin="round"/>
<path d="M8 4.5V8.5L10.6667 11.1667" stroke="#292929" stroke-opacity="0.95" stroke-width="1.5" stroke-linecap="round" stroke-linejoin="round"/>
</g>
<defs>
<clipPath id="clip0_45_171">
<rect width="16" height="16" fill="white" transform="translate(0 0.5)"/>
</clipPath>
</defs>
</svg>
