<svg width="16" height="17" viewBox="0 0 16 17" fill="none" xmlns="http://www.w3.org/2000/svg">
<path d="M3.83993 13.7165C4.61154 12.2031 6.18474 11.1667 8.00001 11.1667C9.80128 11.1667 11.3641 12.1872 12.1421 13.6815M9.55554 7.46293C9.55554 8.36299 8.82594 9.09259 7.92594 9.09259C7.02594 9.09259 6.2963 8.36299 6.2963 7.46293C6.2963 6.56294 7.02594 5.83333 7.92594 5.83333C8.82594 5.83333 9.55554 6.56294 9.55554 7.46293ZM8.00001 15.1667C4.31811 15.1667 1.33334 12.1819 1.33334 8.49999C1.33334 4.81809 4.31811 1.83333 8.00001 1.83333C11.6819 1.83333 14.6667 4.81809 14.6667 8.49999C14.6667 12.1819 11.6819 15.1667 8.00001 15.1667Z" stroke="#292929" stroke-opacity="0.95" stroke-width="1.5" stroke-linecap="round" stroke-linejoin="round"/>
</svg>
