<svg width="28" height="28" viewBox="0 0 28 28" fill="none" xmlns="http://www.w3.org/2000/svg">
<path d="M6.7199 23.1289C8.07022 20.4805 10.8233 18.6667 14 18.6667C17.1523 18.6667 19.8873 20.4526 21.2487 23.0677M16.7222 12.1851C16.7222 13.7603 15.4454 15.0371 13.8704 15.0371C12.2954 15.0371 11.0186 13.7603 11.0186 12.1851C11.0186 10.6102 12.2954 9.33334 13.8704 9.33334C15.4454 9.33334 16.7222 10.6102 16.7222 12.1851ZM14 25.6667C7.55672 25.6667 2.33337 20.4433 2.33337 14C2.33337 7.55668 7.55672 2.33334 14 2.33334C20.4433 2.33334 25.6667 7.55668 25.6667 14C25.6667 20.4433 20.4433 25.6667 14 25.6667Z" stroke="white" stroke-opacity="0.95" stroke-width="1.5" stroke-linecap="round" stroke-linejoin="round"/>
</svg>
